<svg xmlns="http://www.w3.org/2000/svg" width="40.808" height="40.808" viewBox="0 0 40.808 40.808">
  <g id="Grupo_131" data-name="Grupo 131" transform="translate(-342.963 -349.096)">
    <path id="Trazado_262" data-name="Trazado 262" d="M20.4,0A20.4,20.4,0,1,1,0,20.4,20.4,20.4,0,0,1,20.4,0Z" transform="translate(342.963 349.096)" fill="#e03850"/>
    <g id="Grupo_130" data-name="Grupo 130">
      <path id="Trazado_243" data-name="Trazado 243" d="M361.947,369.031c.251-.263.5-.531.754-.79q1.656-1.67,3.316-3.335c.094-.094.188-.243.3-.256.2-.024.481-.037.59.078s.077.393.052.592c-.012.094-.151.174-.234.257q-3.131,3.146-6.262,6.288c-.094.094-.2.175-.332.289l.686.577,9.163-9.164a5.654,5.654,0,0,0-.521-.436c-.085-.058-.235-.007-.346-.039-.184-.052-.441-.083-.519-.212a.606.606,0,0,1,.042-.559c1.2-1.462,2.406-2.921,3.649-4.346a2.33,2.33,0,0,1,2-.86,1.611,1.611,0,0,1,1.186,2.563,1.021,1.021,0,0,1-.264.3,3.48,3.48,0,0,0-1.418,1.911,2.811,2.811,0,0,1-1.623,1.61,6.419,6.419,0,0,0-2.092,1.518c-1.947,1.985-3.925,3.94-5.894,5.9a3.849,3.849,0,0,1-.384.3l.042.144a2.824,2.824,0,0,0,.561.1,2.35,2.35,0,0,0,.605-.114c.759-.215,1.28-.069,1.6.462a1.438,1.438,0,0,1-.324,1.81,3.689,3.689,0,0,1-.91.532c-.416.186-.856.322-1.283.484a2.52,2.52,0,0,0-1.5,1.426,2.126,2.126,0,0,1-.155.318.48.48,0,0,1-.868-.411,3.547,3.547,0,0,1,1.94-2.137c.533-.218,1.082-.395,1.608-.628a1.861,1.861,0,0,0,.621-.464c.076-.087.043-.311-.008-.446-.02-.051-.248-.07-.355-.032a2.429,2.429,0,0,1-2.307-.235c-.6.6-1.179,1.194-1.764,1.778-.364.363-.562.362-.932,0-.4-.394-.793-.8-1.193-1.191a.518.518,0,0,1,0-.842c.557-.552,1.115-1.1,1.658-1.668a.52.52,0,0,0,.146-.4,4.307,4.307,0,0,1,.1-2.446c.034-.113.113-.249.078-.339a.932.932,0,0,0-.325-.5c-.094-.048-.389.111-.467.249-.216.383-.36.807-.544,1.21a5.386,5.386,0,0,1-2.378,2.824,9.007,9.007,0,0,1-1.538.546,5.789,5.789,0,0,0-2.916,1.676,3.958,3.958,0,0,0-.871,4.051,5.4,5.4,0,0,0,4,3.892,3.614,3.614,0,0,0,4.129-1.665c.161-.3.4-.467.722-.283s.3.467.122.765a4.14,4.14,0,0,1-3.735,2.214A6.341,6.341,0,0,1,351,376.481a5.289,5.289,0,0,1,3.23-5.65,9.366,9.366,0,0,1,1.671-.573,3.991,3.991,0,0,0,2.759-2.237c.291-.6.536-1.215.826-1.813a1.309,1.309,0,0,1,1.271-.807,1.294,1.294,0,0,1,1.268.878,2.5,2.5,0,0,1,.028,1.075c-.067.534-.2,1.059-.3,1.588Zm8.907-6.008a3.413,3.413,0,0,0,2.418-2.293,4.2,4.2,0,0,1,.9-1.164,4.782,4.782,0,0,1,.4-.342c.239-.226.364-.529.144-.786a.9.9,0,0,0-.682-.334,2,2,0,0,0-1.026.534c-1.034,1.169-2.012,2.388-3.033,3.615Z" fill="#fff"/>
      <path id="Trazado_244" data-name="Trazado 244" d="M355.88,375.174a2.262,2.262,0,0,1,.418.245c.435.419.857.851,1.285,1.276a.482.482,0,0,1,.066.74.472.472,0,0,1-.739-.036c-.451-.444-.9-.89-1.319-1.365a.637.637,0,0,1-.083-.521C355.547,375.38,355.741,375.293,355.88,375.174Z" fill="#fff"/>
      <path id="Trazado_245" data-name="Trazado 245" d="M357.382,373.689a2.729,2.729,0,0,1,.4.266c.424.411.835.834,1.254,1.249.242.239.343.5.072.768-.252.248-.515.158-.739-.066-.439-.437-.887-.867-1.293-1.333a.678.678,0,0,1-.081-.55C357.035,373.891,357.238,373.806,357.382,373.689Z" fill="#fff"/>
      <path id="Trazado_246" data-name="Trazado 246" d="M367.49,364.589c-.13-.178-.338-.343-.371-.537a.429.429,0,0,1,.477-.5.418.418,0,0,1,.454.479c-.032.2-.229.371-.353.555Z" fill="#fff"/>
      <path id="Trazado_247" data-name="Trazado 247" d="M362.021,377.6c-.186.123-.393.364-.555.336a.707.707,0,0,1-.451-.478.383.383,0,0,1,.473-.438c.2.04.361.242.54.371Z" fill="#fff"/>
    </g>
  </g>
</svg>
