<svg xmlns="http://www.w3.org/2000/svg" width="40.808" height="40.808" viewBox="0 0 40.808 40.808">
  <g id="Grupo_139" data-name="Grupo 139" transform="translate(-347.038 -349.096)">
    <circle id="Elipse_20" data-name="Elipse 20" cx="20.404" cy="20.404" r="20.404" transform="translate(347.038 349.096)" fill="#e03850"/>
    <g id="Grupo_138" data-name="Grupo 138">
      <path id="Trazado_259" data-name="Trazado 259" d="M377.866,380.6v-5.486c-.93.153-1.819.344-2.719.433-.8.08-1.227.311-1.391,1.226-.265,1.475-.975,2.311-2.708,3.827h.828c.642,0,.87.13.875.5s-.25.525-.861.525q-1.968,0-3.935,0H355.593c-.108,0-.216,0-.324,0-.522-.005-.782-.175-.786-.513s.249-.506.776-.508c.228,0,.455,0,.694,0a1.692,1.692,0,0,0,.05-.265c0-1.7,0-3.395.008-5.092,0-.267-.127-.333-.359-.37-.679-.11-.766-.254-.645-.932.317-1.775.639-3.549.934-5.328a8.638,8.638,0,0,0,.064-1.338c.007-1.278,0-2.556,0-3.9-.344,0-.647,0-.95,0-.347,0-.577-.172-.564-.528.011-.328.232-.479.563-.477.741,0,1.482-.017,2.222.009A.61.61,0,0,0,358,361.9c-.107-.079-.243-.171-.367-.276-.519-.436-1.044-.864-1.545-1.321a3.365,3.365,0,0,1-.55-.682,1.435,1.435,0,0,1-.22-1.637,1.411,1.411,0,0,1,1.6-.556c.953.219,1.879.562,2.813.861a4.383,4.383,0,0,1,.5.228c.36-.262.464-1.046,1.093-.642.577.37.015.775-.131,1.17a18.012,18.012,0,0,1,1.48,1.157,7.676,7.676,0,0,1,1.257,1.464c.663,1.067.111,1.995-1.141,2a7.941,7.941,0,0,1-3.472-1.02c-.123-.059-.244-.122-.439-.221-.276.945-1,1.07-1.882.925v4.557l2.189.372c0-.717,0-1.389,0-2.062,0-.7.105-.806.8-.806q2.847,0,5.694,0c.637,0,.742.11.743.761,0,.754,0,1.508,0,2.289h2.036c0-.773,0-1.541,0-2.309,0-.624.112-.74.716-.741q2.894,0,5.788,0c.6,0,.731.129.735.735.005.691,0,1.382,0,2.13l2.16-.36v-4.513a3.242,3.242,0,0,1-1.142-.09c-.314-.149-.517-.532-.759-.8-.782.307-1.568.661-2.385.92a5.261,5.261,0,0,1-1.545.225,1.2,1.2,0,0,1-1.143-1.894,6.971,6.971,0,0,1,2.28-2.322c.172-.125.35-.242.531-.367-.137-.421-.736-.844-.113-1.213.6-.358.713.379.992.6.934-.324,1.819-.682,2.734-.926a3.836,3.836,0,0,1,1.5-.052,1.018,1.018,0,0,1,.848,1.408,4.1,4.1,0,0,1-.829,1.36c-.58.61-1.258,1.127-1.923,1.708.064.334.309.432.684.419.725-.025,1.451,0,2.176-.01.365-.005.63.127.626.509s-.284.51-.64.5c-.274-.007-.547,0-.874,0,0,.525.03,1-.005,1.473-.231,3.1.489,6.1,1.009,9.119.111.641.016.8-.634.9-.221.035-.375.078-.373.355.01,1.729.008,3.457.012,5.185a.906.906,0,0,0,.058.189c.289,0,.593,0,.9,0a.507.507,0,1,1,.02,1.011q-1.5.023-3.009,0a.481.481,0,0,1-.534-.515c.007-.371.246-.5.587-.5C377.219,380.6,377.525,380.6,377.866,380.6Zm-10.438-11.139a5.57,5.57,0,1,0,5.586,5.582A5.566,5.566,0,0,0,367.428,369.461Zm-6.567,5.259a6.8,6.8,0,0,1,2.325-4.726l-6.266-1.063-.877,4.982Zm10.835-4.725a6.808,6.808,0,0,1,2.341,4.724l4.813-.807-.88-4.979Zm-14.673,10.57h6.769a1.075,1.075,0,0,0-.121-.14,6.591,6.591,0,0,1-2.738-4.393.532.532,0,0,0-.352-.315c-.525-.119-1.06-.2-1.592-.282-.646-.107-1.293-.209-1.966-.317Zm8.4-14.1h-5.18v2c1.316.226,2.6.488,3.893.642a3.167,3.167,0,0,0,1.207-.341c.043-.014.076-.128.076-.195C365.424,367.876,365.422,367.186,365.422,366.463Zm4.086,0c0,.765,0,1.516,0,2.266a2.334,2.334,0,0,0,1.752.323c1.121-.25,2.263-.4,3.385-.594v-2.025c-1.673,0-3.307,0-4.941,0A1.447,1.447,0,0,0,369.508,366.466Zm-6.263-3.976a5.688,5.688,0,0,0-.537-.826,10.771,10.771,0,0,0-5.333-3.151,1.486,1.486,0,0,0-1.194.007C356.471,360.281,361.825,363.271,363.245,362.49Zm15.479-4.015a2.559,2.559,0,0,0-.651-.055,10.318,10.318,0,0,0-6.055,3.45,3.339,3.339,0,0,0-.353.656C373.246,363.194,378.393,360.255,378.724,358.475Z" fill="#fff"/>
      <path id="Trazado_260" data-name="Trazado 260" d="M375.106,381.215c-.193.13-.376.345-.582.371a.438.438,0,0,1-.485-.491c.011-.3.207-.525.5-.47.206.038.381.25.57.384Z" fill="#fff"/>
      <path id="Trazado_261" data-name="Trazado 261" d="M367.445,373.007a2.01,2.01,0,0,1,2.024,2.028,2.023,2.023,0,0,1-4.046,0A2.007,2.007,0,0,1,367.445,373.007Zm-.016,1.021a1.008,1.008,0,0,0-1,1,1.013,1.013,0,1,0,2.025-.033A1.009,1.009,0,0,0,367.429,374.028Z" fill="#fff"/>
    </g>
  </g>
</svg>
