<svg xmlns="http://www.w3.org/2000/svg" width="40.808" height="40.808" viewBox="0 0 40.808 40.808">
  <g id="Grupo_135" data-name="Grupo 135" transform="translate(-347.038 -349.096)">
    <circle id="Elipse_18" data-name="Elipse 18" cx="20.404" cy="20.404" r="20.404" transform="translate(347.038 349.096)" fill="#e03850"/>
    <g id="Grupo_134" data-name="Grupo 134">
      <path id="Trazado_250" data-name="Trazado 250" d="M360.088,374.939c-.318-.334-.177-.578.092-.825.324-.3.632-.611.932-.931.275-.294.546-.518.932-.07.348-.369.656-.7.972-1.027.175-.181.382-.272.592-.063s.113.424-.064.6c-.325.315-.664.616-.983.909l.78.784,2.45-2.452-.726-.74a.932.932,0,0,1-.3.259,1.705,1.705,0,0,1-.527.017,1.734,1.734,0,0,1,.016-.526c.044-.129.215-.209.3-.33.21-.287.384-.6.612-.872a7.118,7.118,0,0,1,.842-.85c.269-.228.6-.378.869-.608a9.848,9.848,0,0,0,1-1c.249-.29.426-.642.667-.941.223-.276.444-.627.745-.751a3.679,3.679,0,0,0,1.177-.886c.268-.267.556-.518.8-.808s.4-.623.64-.906a6.4,6.4,0,0,1,.811-.819c.293-.246.657-.41.938-.666.515-.469.994-.977,1.483-1.473.08-.082.215-.229.191-.277-.241-.467.145-.658.382-.9.377-.394.751-.794,1.164-1.147.135-.114.387-.093.587-.126.117-.019.257.013.353-.039.266-.143.513-.319.769-.481.09-.056.18-.145.275-.153.614-.054.777.542,1.139.844a.669.669,0,0,1,.056.586,3.848,3.848,0,0,1-.447.733c-.128.2-.305.371-.087.638.054.066-.014.308-.1.4a13.228,13.228,0,0,1-1.55,1.528c-.334.252-.876.168-1.238.487-.031.027-.252-.074-.286-.156a.563.563,0,0,1,.005-.412,2.438,2.438,0,0,1,.363-.444c-.123-.13-.247-.254-.364-.385s-.236-.276-.328-.385l-1.756,1.75.7.712-.085.132a1.365,1.365,0,0,1,.371-.3c.147-.052.422-.071.472.006a.749.749,0,0,1,.022.517c-.023.1-.17.168-.239.266-.214.3-.4.623-.63.91s-.441.637-.742.755a3.64,3.64,0,0,0-1.213.916c-.291.287-.6.563-.862.872-.2.233-.329.527-.524.766a6.38,6.38,0,0,1-.791.843c-.326.277-.718.476-1.044.752a8.763,8.763,0,0,0-.964.963c-.22.255-.357.581-.577.836a8.158,8.158,0,0,1-.89.863c-.224.189-.522.3-.731.5-.881.852-1.741,1.725-2.629,2.61.333.367.215.648-.111.929a11.914,11.914,0,0,0-.9.9c-.265.283-.525.493-.922.041-.526.738-1.015,1.424-1.5,2.111-.052.074-.07.192-.137.231-.162.094-.373.247-.513.206-.269-.081-.277-.347-.13-.562.486-.71.987-1.411,1.485-2.112.086-.122.19-.231.278-.337l-.86-.829c-1.419,1.062-2.833,2.256-4.675,2.375l3.151,3.152a1.293,1.293,0,0,1,.035-.461c.053-.14.243-.343.335-.326a.571.571,0,0,1,.368.345,2.174,2.174,0,0,1,.094.935,1,1,0,0,1-.446.59.624.624,0,0,1-.59-.055q-2-1.947-3.953-3.95a.589.589,0,0,1-.073-.55c.121-.209.388-.509.555-.487,1.394.185,2.442-.55,3.508-1.241C359.292,375.58,359.649,375.272,360.088,374.939Zm18.473-15.147-1.369-1.378-.992.937,1.413,1.426Zm-17.723,14.659,1.593,1.6.663-.641-1.6-1.61c-.117.132-.26.307-.418.467A1.658,1.658,0,0,1,360.838,374.451Zm9.179-6.618a.883.883,0,1,0-.878-.9A.864.864,0,0,0,370.017,367.833Zm4.251-4.232a.883.883,0,1,0-1.766,0,.864.864,0,0,0,.857.873A.876.876,0,0,0,374.268,363.6Zm-8.491,6.694a.865.865,0,0,0,.874.9.883.883,0,1,0-.874-.9Zm5.824-4.182.945-.928-.7-.769-1,.959Zm-3.366,3.359.941-.92-.691-.769-1,.953Zm9.947-11.34.666.649.475-.756-.355-.395Z" fill="#fff"/>
    </g>
  </g>
</svg>
