<svg xmlns="http://www.w3.org/2000/svg" width="40.808" height="41" viewBox="0 0 40.808 41">
  <g id="Grupo_129" data-name="Grupo 129" transform="translate(-347.038 -349.096)">
    <ellipse id="Elipse_16" data-name="Elipse 16" cx="20.404" cy="20.5" rx="20.404" ry="20.5" transform="translate(347.038 349.096)" fill="#e03850"/>
    <g id="Grupo_128" data-name="Grupo 128" transform="translate(354.801 357.597)">
      <path id="Trazado_237" data-name="Trazado 237" d="M368.479,365.67c1.444-1.443,2.862-2.856,4.273-4.276a1.025,1.025,0,0,0,.193-.349,6.086,6.086,0,0,0,.2-.6c.242-.9.455-1.816,1.738-1.583,0-.459-.209-.978.371-1.072s.548.457.662.869l.906-.119c.046-.412-.2-1,.465-1.039.51-.027.489.473.576.855a.987.987,0,0,0,.3,0,1.381,1.381,0,0,1,1.64.587c.381.456.394.681-.087,1.026-1.234.887-2.493,1.741-3.7,2.661a23.622,23.622,0,0,0-2.168,1.894c-1.552,1.514-3.069,3.064-4.609,4.59-.266.262-.47.533-.332.91s.472.356.8.367a1.348,1.348,0,0,1,1.331.893,1.518,1.518,0,0,1-.527,1.737,7.885,7.885,0,0,1-1.636.94,2.166,2.166,0,0,0-1.437,1.949,6.014,6.014,0,0,1-2.842,4.641,5.405,5.405,0,0,1-6.382-.193,7.645,7.645,0,0,1-3.136-3.964,5.75,5.75,0,0,1,3.757-7.167,12.579,12.579,0,0,1,1.707-.408,2.088,2.088,0,0,0,1.761-1.42,5.478,5.478,0,0,1,.477-.969,3.518,3.518,0,0,1,5.356-1.03C368.239,365.478,368.344,365.564,368.479,365.67Zm-.531,4.721c-.4.408-.772.78-1.139,1.157a.525.525,0,0,1-.856,0c-.4-.408-.811-.807-1.211-1.215-.325-.332-.327-.56-.012-.886s.61-.625.926-.926c.718-.682,1.442-1.358,2.161-2.035a2.549,2.549,0,0,0-4.046.217,6.728,6.728,0,0,0-.61,1.2,2.977,2.977,0,0,1-2.36,1.868,12.018,12.018,0,0,0-2,.525,4.679,4.679,0,0,0-2.54,6.379,7.046,7.046,0,0,0,3.27,3.31,4.27,4.27,0,0,0,3.108.368,5.188,5.188,0,0,0,3.8-4.5,3.174,3.174,0,0,1,1.063-2.219,9.777,9.777,0,0,1,1.21-.684,9.912,9.912,0,0,0,1.186-.729.678.678,0,0,0,.171-.587c-.031-.121-.322-.252-.494-.248A1.749,1.749,0,0,1,367.948,370.391Zm5.438-8.05-7.628,7.506.591.605,7.586-7.582Zm5.431-2.949c-.08-.069-.093-.089-.1-.087-1.379.188-2.759.37-4.136.572-.285.042-.764,1.4-.6,1.633a.324.324,0,0,0,.031.033l.719.772Z" transform="translate(-354.801 -357.501)" fill="#fff"/>
      <path id="Trazado_238" data-name="Trazado 238" d="M361.324,376.907c-.094.124-.171.328-.306.38a.61.61,0,0,1-.528-.055c-.73-.689-1.436-1.4-2.139-2.122a.413.413,0,0,1,.023-.667.676.676,0,0,1,.628-.027c.748.691,1.456,1.426,2.169,2.153A1.25,1.25,0,0,1,361.324,376.907Z" transform="translate(-354.801 -357.501)" fill="#fff"/>
      <path id="Trazado_239" data-name="Trazado 239" d="M364.813,373.418c-.093.123-.17.317-.306.378a.56.56,0,0,1-.495-.033,19.339,19.339,0,0,1-1.509-1.535.465.465,0,0,1,.658-.629c.529.462,1.012.976,1.5,1.48A1.255,1.255,0,0,1,364.813,373.418Z" transform="translate(-354.801 -357.501)" fill="#fff"/>
      <path id="Trazado_240" data-name="Trazado 240" d="M361.479,372.833a2.73,2.73,0,0,1,.418.262c.431.416.851.843,1.274,1.268a.486.486,0,0,1,.058.751c-.252.265-.517.181-.747-.045-.438-.43-.889-.851-1.29-1.314a.786.786,0,0,1-.1-.6C361.114,373.028,361.334,372.945,361.479,372.833Z" transform="translate(-354.801 -357.501)" fill="#fff"/>
      <path id="Trazado_241" data-name="Trazado 241" d="M364.982,377.581c-.322.224-.5.436-.7.465-.283.041-.473-.177-.467-.48s.2-.517.48-.467C364.5,377.134,364.666,377.35,364.982,377.581Z" transform="translate(-354.801 -357.501)" fill="#fff"/>
      <path id="Trazado_242" data-name="Trazado 242" d="M362.744,378.37c-.182.131-.35.343-.548.374-.279.045-.474-.165-.477-.466s.169-.52.463-.473c.2.032.373.231.558.355Z" transform="translate(-354.801 -357.501)" fill="#fff"/>
    </g>
  </g>
</svg>
