<svg xmlns="http://www.w3.org/2000/svg" width="40.808" height="40.808" viewBox="0 0 40.808 40.808">
  <g id="Grupo_127" data-name="Grupo 127" transform="translate(-347.038 -349.096)">
    <circle id="Elipse_15" data-name="Elipse 15" cx="20.404" cy="20.404" r="20.404" transform="translate(347.038 349.096)" fill="#e03850"/>
    <g id="Grupo_126" data-name="Grupo 126">
      <g id="Grupo_125" data-name="Grupo 125">
        <path id="Trazado_217" data-name="Trazado 217" d="M363.334,377.18c-1.007-.054-2.005-.12-3-.157a1.718,1.718,0,0,1-1.519-.989,17.236,17.236,0,0,1-1.945-6.018,30.091,30.091,0,0,1,.854-11.913,1.388,1.388,0,0,1,1.082-1,9.687,9.687,0,0,1,3.591-.39,20.638,20.638,0,0,1,2.7.393,1.411,1.411,0,0,1,1.148,1.211,34.686,34.686,0,0,1,1.074,7.973c-.018,1.487-.256,2.971-.395,4.456-.015.153-.037.306-.056.458l.126.023a2.329,2.329,0,0,1,.1-.528,1.463,1.463,0,0,1,.3-.339c.107.112.257.2.311.338a8.334,8.334,0,0,1,.252.864l.147-.033c-.093-.568-.188-1.136-.277-1.7a27.131,27.131,0,0,1,.412-9.561c.134-.678.307-1.348.437-2.027a1.21,1.21,0,0,1,.947-1.057,22.616,22.616,0,0,1,2.823-.459,9.708,9.708,0,0,1,3.6.363,1.531,1.531,0,0,1,1.188,1.237,32.12,32.12,0,0,1,.979,10.14,20.22,20.22,0,0,1-1.945,7.285,2.328,2.328,0,0,1-2.245,1.354c-.846.023-1.692.005-2.568.005a1.96,1.96,0,0,0,.111.246c.824,1.357,1.644,2.717,2.488,4.061a.857.857,0,0,0,.512.293c.225.051.476-.017.7.028a.448.448,0,0,1,.278.288c.018.073-.145.272-.23.274q-1.3.03-2.6,0c-.084,0-.228-.186-.226-.282a.381.381,0,0,1,.24-.276,4.251,4.251,0,0,1,.762-.013l-5.74-9.416v5.1a4.524,4.524,0,0,1,.842.015c.137.027.242.214.361.329-.119.1-.235.277-.357.281-.786.026-1.574.027-2.359,0-.124,0-.241-.185-.362-.285.122-.114.229-.3.368-.327a4.084,4.084,0,0,1,.81-.015V372.44l-.077-.029-5.629,9.307a3.54,3.54,0,0,1,.706.012c.114.027.276.181.276.277a.4.4,0,0,1-.262.292q-1.249.034-2.5,0a.394.394,0,0,1-.26-.292c0-.1.179-.192.281-.286a.06.06,0,0,1,.046,0c.868.21,1.234-.322,1.6-.985.613-1.115,1.3-2.186,1.962-3.277C363.252,377.353,363.3,377.242,363.334,377.18Zm-5.473-16.708a25.4,25.4,0,0,0-.356,9.551c.174,1.077.177,1.091,1.23,1.329a15.306,15.306,0,0,0,5.015.216,18.423,18.423,0,0,0,2.026-.4.69.69,0,0,0,.551-.662,24.3,24.3,0,0,0,.158-7.323c-.126-.914-.281-1.824-.428-2.768a12.848,12.848,0,0,1-5.582.65v4.133c.269,0,.5-.008.735,0,.337.015.465.206.323.505q-.514,1.084-1.075,2.147c-.156.293-.417.325-.581.023-.39-.716-.756-1.447-1.1-2.187-.135-.29,0-.49.345-.49.213,0,.427,0,.65,0V361Zm12.829,4.722c.047-.078.076-.1.076-.13.009-1.289.023-2.579.007-3.868,0-.1-.194-.251-.324-.291-.52-.159-1.05-.283-1.6-.426a.573.573,0,0,0-.06.139,26.723,26.723,0,0,0-.259,9.8.9.9,0,0,0,.7.811c.151.045.3.088.455.123a15.385,15.385,0,0,0,5.018.219,18.218,18.218,0,0,0,2.117-.433.6.6,0,0,0,.467-.567,22.873,22.873,0,0,0,.331-5.588c-.118-1.513-.346-3.017-.532-4.588a12.883,12.883,0,0,1-5.661.661v4.12c.129.006.236.014.342.017.126,0,.253-.005.378,0,.392.023.509.2.338.555q-.5,1.041-1.034,2.064c-.181.345-.448.347-.627.006-.365-.7-.71-1.4-1.056-2.107-.152-.309-.033-.488.3-.515C370.287,365.18,370.5,365.194,370.69,365.194Zm-1.831,6.6c.007.09.007.165.019.238a11.5,11.5,0,0,0,1.961,4.135.5.5,0,0,0,.344.191c.859.061,1.72.1,2.579.147a2.044,2.044,0,0,0,2.148-1.444,17.812,17.812,0,0,0,1.125-3.283A16.51,16.51,0,0,1,368.859,371.794Zm-11.024-.011a12.643,12.643,0,0,0,1.662,4.139.924.924,0,0,0,.48.4,9.13,9.13,0,0,0,3.513.092.913.913,0,0,0,.541-.366,22.786,22.786,0,0,0,1.36-2.26,17.757,17.757,0,0,0,.725-2.02A16.637,16.637,0,0,1,357.835,371.783Zm.391-13.033c-.272,1.11-.51,1,.816,1.429.03.01.061.013.092.02a13.488,13.488,0,0,0,4.873.128,10.578,10.578,0,0,0,1.585-.42.473.473,0,0,0,.255-.363,4.37,4.37,0,0,0-.163-.793A11.646,11.646,0,0,1,358.226,358.75Zm11.024-.041c-.407,1.049-.373,1.165.658,1.422a12.263,12.263,0,0,0,5.962.02c1.242-.3,1.09-.28.767-1.416A11.041,11.041,0,0,1,369.25,358.709Zm7.217-.685c-.947-.971-6.406-.914-7.026.009C370.545,358.955,375.226,358.965,376.467,358.024Zm-18.024,0c1.236.962,6.193.92,7.01-.038C364.5,357.077,359.288,357.1,358.443,358.025Zm1.716,9.018.6-1.208h-1.2Zm10.364-1.226.622,1.247.6-1.247Z" fill="#fff"/>
      </g>
    </g>
  </g>
</svg>
