<svg xmlns="http://www.w3.org/2000/svg" width="40.808" height="40.808" viewBox="0 0 40.808 40.808">
  <g id="Grupo_137" data-name="Grupo 137" transform="translate(-347.038 -349.096)">
    <path id="Trazado_287" data-name="Trazado 287" d="M20.4,0A20.4,20.4,0,1,1,0,20.4,20.4,20.4,0,0,1,20.4,0Z" transform="translate(347.038 349.096)" fill="#e03850"/>
    <g id="Grupo_136" data-name="Grupo 136">
      <path id="Trazado_251" data-name="Trazado 251" d="M373.176,369.717l-1.467-.376c-.182.517-.354,1-.523,1.487-.1.274-.2.56-.57.442s-.284-.415-.193-.688c.083-.247.162-.5.252-.74.166-.449.349-.842-.086-1.315a1.426,1.426,0,0,1-.086-1.1.881.881,0,0,0-.253-1,6.184,6.184,0,0,1-1.114-7.3,6.231,6.231,0,1,1,6.693,9.009c-.3.058-.492.162-.555.492a1.429,1.429,0,0,1-1.132,1.261c-.113.026-.225.245-.262.393-.781,3.093-1.548,6.19-2.325,9.284a1.991,1.991,0,1,1-3.857-.977c.632-1.984,1.332-3.947,2.006-5.918.088-.257.248-.445.545-.343.336.115.294.393.206.652-.645,1.895-1.3,3.786-1.942,5.681a1.2,1.2,0,0,0,.582,1.574,1.181,1.181,0,0,0,1.68-.882c.432-1.67.843-3.346,1.26-5.02C372.412,372.816,372.785,371.3,373.176,369.717Zm-3.137-10.611c-.2.452-.346.762-.487,1.071a1.536,1.536,0,0,0,.437,2.137.861.861,0,0,0,.773.242c1.952-.422,1.569-.624,3.081.9a.7.7,0,0,0,.734.209c1.852-.39,1.617-.605,3.008.857.318.334,1.679.307,1.9-.081a4.435,4.435,0,0,0,.572-2.351,1.792,1.792,0,0,1-2.484-.7.366.366,0,0,1-.032-.037.9.9,0,0,0-1.132-.369c-1.666.43-1.49.419-2.671-.763a.226.226,0,0,1-.034-.035.838.838,0,0,0-1.063-.314C371.661,360.2,370.7,360.321,370.039,359.106Zm9.967,2.23a5.375,5.375,0,0,0-4-4.558,5.283,5.283,0,0,0-5.434,1.756c.643.829.643.828,1.648.611a3.05,3.05,0,0,0,.335-.068,1.355,1.355,0,0,1,1.681.514,1.475,1.475,0,0,0,1.994.63,2.211,2.211,0,0,1,.38-.084,1.167,1.167,0,0,1,1.205.338,12.466,12.466,0,0,0,.906.89.777.777,0,0,0,.509.143A4.924,4.924,0,0,0,380.006,361.336Zm-10.658,1.408c-.045,1.929,1.925,4.081,4.076,4.582,2.281.532,4.584-.629,5.241-1.8a1.451,1.451,0,0,1-1.82-.6c-.074-.087-.173-.153-.239-.244a.929.929,0,0,0-1.222-.373,1.941,1.941,0,0,1-2.586-.769.967.967,0,0,0-1.226-.355C370.791,363.409,369.97,363.7,369.348,362.744Zm1.994,4.737c-.287.57-.213.765.457.967.608.184,1.215.367,1.825.544s.858-.042.824-.592Z" fill="#fff"/>
      <path id="Trazado_252" data-name="Trazado 252" d="M365.471,364.929a1.538,1.538,0,0,1-1.952.274,1.333,1.333,0,0,0-1.794.4,3.245,3.245,0,0,1-.362.328,1.136,1.136,0,0,1-1.216.279,1.239,1.239,0,0,1-.188-.052,1.684,1.684,0,0,0-2.333.5,1.434,1.434,0,0,1-1.716.375c.11.135.269.253.318.407.063.2.13.5.03.632-.183.248-.439.1-.618-.1a6.237,6.237,0,1,1,9.094.083.674.674,0,0,1-.1.1,1.248,1.248,0,0,0-.6,1.586,1.244,1.244,0,0,1-.334.955.671.671,0,0,0-.158.725q1.212,4.5,2.408,9.007a2.044,2.044,0,0,1-1.026,2.563,2,2,0,0,1-2.838-1.551c-.246-1.345-.469-2.7-.706-4.041-.316-1.8-.642-3.591-.947-5.388a.488.488,0,0,0-.387-.471,1.066,1.066,0,0,1-.818-.939.924.924,0,0,0-.9-.929,3.182,3.182,0,0,1-.772-.3c-.266-.117-.53-.273-.371-.62s.443-.244.709-.12a5.255,5.255,0,0,0,4.494.085A5.156,5.156,0,0,0,365.471,364.929Zm-10.623-1.478-.132.154c.146.69.285,1.383.445,2.07a.488.488,0,0,0,.234.281,1.474,1.474,0,0,0,2.138-.3,1.634,1.634,0,0,1,2.059-.442,1.363,1.363,0,0,0,1.863-.431,1.476,1.476,0,0,1,1.961-.431,1.391,1.391,0,0,0,1.91-.431c.114-.146.318-.306.311-.451a4.743,4.743,0,0,0-.642-2.26c-.74,1.167-1.717.9-2.7.508a.814.814,0,0,0-.953.214c-1.384,1.24-1.128,1.2-2.869.641a.876.876,0,0,0-1.034.25C356.738,363.574,355.974,364.163,354.848,363.451Zm9.74-2.9a5.354,5.354,0,0,0-5.769-2.039,5.284,5.284,0,0,0-3.862,4.15c.992.4.992.4,1.751-.265.171-.151.344-.3.513-.452a.966.966,0,0,1,1.085-.241,2.056,2.056,0,0,0,2.8-.612.947.947,0,0,1,1.079-.247c.418.134.839.264,1.267.358a.7.7,0,0,0,.483-.085A6.056,6.056,0,0,0,364.588,360.555ZM361.2,371.5a1.959,1.959,0,0,0,0,.309q.486,2.789.979,5.576.334,1.9.669,3.8c.156.891.782,1.364,1.528,1.152a1.151,1.151,0,0,0,.829-1.482c-.606-2.313-1.226-4.623-1.84-6.934-.242-.907-.483-1.814-.729-2.738Zm1.944-2.073-3.2.694c.085.678.223.78.957.619q.858-.187,1.716-.378C363.288,370.211,363.4,369.961,363.148,369.423Z" fill="#fff"/>
      <path id="Trazado_253" data-name="Trazado 253" d="M375.151,362.414c-.3.187-.472.385-.634.375-.142-.01-.393-.28-.371-.39a.611.611,0,0,1,.411-.407C374.7,361.978,374.875,362.206,375.151,362.414Z" fill="#fff"/>
      <path id="Trazado_254" data-name="Trazado 254" d="M379.081,363.5c-.269.22-.43.448-.555.43a.643.643,0,0,1-.436-.378c-.03-.1.209-.384.345-.4C378.6,363.143,378.778,363.33,379.081,363.5Z" fill="#fff"/>
      <path id="Trazado_255" data-name="Trazado 255" d="M370.6,360.62c.207.288.43.463.413.611a.6.6,0,0,1-.415.4c-.109.02-.373-.236-.379-.377C370.212,361.089,370.41,360.916,370.6,360.62Z" fill="#fff"/>
      <path id="Trazado_256" data-name="Trazado 256" d="M360.915,364.142c-.3.177-.473.366-.638.356-.134-.008-.254-.252-.381-.392.149-.134.286-.353.45-.376C360.477,363.712,360.641,363.932,360.915,364.142Z" fill="#fff"/>
      <path id="Trazado_257" data-name="Trazado 257" d="M364.259,362.624c.223.272.445.428.43.555-.019.166-.227.309-.354.461-.143-.12-.386-.228-.4-.363C363.913,363.118,364.092,362.935,364.259,362.624Z" fill="#fff"/>
      <path id="Trazado_258" data-name="Trazado 258" d="M356.29,364.4c.209.274.43.441.407.564a.625.625,0,0,1-.39.421c-.106.025-.382-.22-.392-.357C355.9,364.867,356.1,364.693,356.29,364.4Z" fill="#fff"/>
    </g>
  </g>
</svg>
