<svg xmlns="http://www.w3.org/2000/svg" width="40.808" height="40.808" viewBox="0 0 40.808 40.808">
  <g id="Grupo_141" data-name="Grupo 141" transform="translate(-347.038 -349.096)">
    <circle id="Elipse_21" data-name="Elipse 21" cx="20.404" cy="20.404" r="20.404" transform="translate(347.038 349.096)" fill="#e03850"/>
    <g id="Grupo_140" data-name="Grupo 140">
      <path id="Trazado_263" data-name="Trazado 263" d="M357.782,377.02c-.366-.75-.317-1.051.22-1.6a3.86,3.86,0,0,1,.341-.336.844.844,0,0,0,.354-1.047,1.31,1.31,0,0,1,.456-1.246q3.592-3.973,7.183-7.95c.331-.367.683-.717.989-1.1a7.933,7.933,0,0,0,.537-.877c.024-.041.029-.1.063-.127.71-.486.563-1.244.646-1.944a5.366,5.366,0,0,1,7.957-4.066,1.2,1.2,0,0,1,.433.288,1.912,1.912,0,0,1,.159.569c-.2.024-.451.137-.582.055a5.45,5.45,0,0,0-2.182-.792,4.6,4.6,0,0,0-5.029,4.506,1.1,1.1,0,0,0,.3.664q1.821,1.867,3.691,3.687a1.165,1.165,0,0,0,.759.287,4.584,4.584,0,0,0,3.862-6.762c-.053-.1-.159-.193-.158-.289a3.611,3.611,0,0,1,.1-.585c.19.065.468.071.556.2a5.1,5.1,0,0,1,.832,3.18,5.324,5.324,0,0,1-5.692,5.029.514.514,0,0,0-.31.049,23.047,23.047,0,0,0-3.083,2.429c-.561.565-1.178,1.074-1.768,1.609-.207.188-.435.32-.662.062s-.069-.465.139-.652c1.09-.982,2.177-1.966,3.225-2.913l-3.137-3.136c-.113.123-.293.316-.47.512l-7.634,8.445c-.571.633-.564.829.039,1.433.3.3.607.611.914.913.472.467.72.475,1.222.022q2.008-1.807,4.011-3.623c.1-.085.176-.219.285-.248.19-.049.457-.118.584-.028.24.171.148.421-.059.607q-2.256,2.034-4.514,4.065a1.288,1.288,0,0,1-1.3.277.505.505,0,0,0-.614.178c-.173.188-.359.363-.54.543-.54.539-.829.59-1.6.243-.527.553-1.12,1.089-1.6,1.71a1.659,1.659,0,0,0,.274,2.212,1.693,1.693,0,0,0,2.271.02c.722-.651,1.4-1.351,2.092-2.034q1.347-1.326,2.688-2.658a2.512,2.512,0,1,1,3.53,3.558c-.746.743-1.5,1.478-2.247,2.219-.2.2-.42.408-.689.136s-.064-.486.139-.687c.794-.786,1.594-1.564,2.374-2.363a1.618,1.618,0,0,0,.387-1.81,1.655,1.655,0,0,0-1.442-1.1,1.879,1.879,0,0,0-1.569.665q-2.272,2.262-4.557,4.512a2.514,2.514,0,1,1-3.58-3.528C356.822,377.937,357.3,377.49,357.782,377.02Zm11.268-14.333c-.629.48-.646.669-.081,1.234l2.43,2.431c.579.579.778.557,1.232-.087Zm-9.714,12.463c-.3.322-.582.626-.871.919-.261.265-.057.433.126.581s.3.526.643.222l.911-.808Z" fill="#fff"/>
      <path id="Trazado_264" data-name="Trazado 264" d="M365.911,370.867a1.88,1.88,0,0,1-1.344-1.051c-.243-.439.038-.78.349-1.088.873-.863,1.736-1.736,2.606-2.6.584-.58.951-.553,1.609.108.613.614.629,1,.058,1.578-.877.882-1.751,1.766-2.643,2.633A3.731,3.731,0,0,1,365.911,370.867Zm-.148-.873,1.153-1.124-.377-.519-1.194,1.161Zm2.57-3.446-1.219,1.122.448.53,1.221-1.143Z" fill="#fff"/>
      <path id="Trazado_265" data-name="Trazado 265" d="M364.631,371.313c-.426.321-.733.565-1.062.773a1.55,1.55,0,0,1-.32-.394,5.256,5.256,0,0,1,.818-.788C364.108,370.873,364.347,371.1,364.631,371.313Z" fill="#fff"/>
    </g>
  </g>
</svg>
