<svg xmlns="http://www.w3.org/2000/svg" width="40.808" height="40.808" viewBox="0 0 40.808 40.808">
  <g id="Grupo_133" data-name="Grupo 133" transform="translate(-347.038 -349.096)">
    <path id="Trazado_249" data-name="Trazado 249" d="M20.4,0A20.4,20.4,0,1,1,0,20.4,20.4,20.4,0,0,1,20.4,0Z" transform="translate(347.038 349.096)" fill="#e03850"/>
    <g id="Grupo_132" data-name="Grupo 132">
      <path id="Trazado_248" data-name="Trazado 248" d="M367.43,378.692h-9.643a1.6,1.6,0,0,1-1.835-1.827V362.093a1.58,1.58,0,0,1,1.793-1.785q9.705,0,19.409,0a1.583,1.583,0,0,1,1.778,1.765q0,7.447,0,14.895a1.567,1.567,0,0,1-1.735,1.723Q372.314,378.7,367.43,378.692Zm2.311-16.821v.494q0,3.854,0,7.708c0,.666-.3.965-.98.973-.172,0-.345,0-.531,0v6.063h4.534v-6.048c-.114-.006-.194-.013-.275-.015-1.036-.016-1.211-.193-1.211-1.226v-7.95Zm-7.624,9.176v6.073h4.541v-6.052c-.142-.008-.262-.019-.382-.021-.907-.009-1.133-.237-1.133-1.146v-8.013h-1.536v.519q0,3.834,0,7.667c0,.675-.3.964-.975.972C362.47,371.048,362.308,371.047,362.117,371.047Zm13.758-9.169v.527q0,3.753,0,7.506c0,.872-.255,1.13-1.114,1.137-.132,0-.263.013-.4.02v6.052h3.011V361.878Zm-18.354-.007v15.246h3v-6.053c-.129-.006-.236-.015-.343-.017-.957-.01-1.173-.23-1.173-1.2q0-3.753,0-7.506v-.473Zm3.057,0v7.6h1.476v-7.6Zm13.731,7.613v-7.6h-1.482v7.6Zm-6.142,0v-7.6h-1.458v7.6Z" fill="#fff"/>
    </g>
  </g>
</svg>
